<svg width="78" height="78" viewBox="0 0 78 78" fill="none" xmlns="http://www.w3.org/2000/svg">
<g clip-path="url(#clip0_1_3)">
<path d="M53.0454 48.6839C62.8486 45.9923 70.1222 39.937 76.1523 32.3575C77.3685 33.0594 77.2571 33.955 77.3703 34.7258C79.6031 49.9215 70.5751 66.797 56.2392 73.6813C43.7769 79.6658 31.3293 79.5441 19.1895 72.6054C15.268 70.364 14.9411 68.8507 16.9474 64.7537C20.7671 56.9535 26.8437 52.0863 35.4411 50.3997C36.5348 50.1851 37.6149 50.2057 38.7027 50.2347C43.499 50.3626 48.2522 50.1117 53.0454 48.6839Z" fill="#2DA5A6"/>
<path d="M26.7921 27.943C15.839 30.4488 8.04761 37.2024 1.41078 46.3113C0.141301 43.1845 -0.0954478 40.643 0.0295821 38.0975C0.977852 18.791 14.1635 3.70646 33.2591 0.546304C42.5913 -0.998104 51.4961 0.695496 59.469 6.09319C62.1024 7.87601 62.5416 9.49559 61.1839 12.3575C56.9849 21.2083 49.8731 25.739 40.1764 26.8152C35.7731 27.3039 31.2713 26.4901 26.7921 27.943Z" fill="#3187D4"/>
<path d="M8.50983 46.4969C15.2741 37.8777 24.0325 33.4318 34.8517 32.9849C39.1488 32.8074 43.433 32.6136 47.6144 31.3894C55.6232 29.0446 61.2789 23.9349 65.2644 16.7929C65.5963 16.1981 65.9248 15.5988 66.2085 14.9805C66.8487 13.5848 67.6427 13.4499 68.632 14.6423C70.3809 16.7499 71.9031 19.0003 73.0355 21.5032C73.571 22.6867 73.5799 23.8471 73.1495 25.0715C72.0401 28.2278 70.1363 30.9059 67.8303 33.2341C60.9156 40.2152 52.5269 44.2405 42.6306 44.2594C35.196 44.2736 28.2542 45.4479 22.0379 49.7196C17.5167 52.8264 14.5072 57.1573 12.0177 61.9128C10.2966 65.2003 9.76491 65.2457 7.56648 62.2217C7.20607 61.726 6.88995 61.1979 6.52307 60.7072C4.03958 57.3857 3.87058 53.9783 6.09273 50.4576C6.89207 49.1911 7.64842 47.8978 8.50983 46.4969Z" fill="#2EA1B3"/>
</g>
<defs>
<clipPath id="clip0_1_3">
<rect width="78" height="78" fill="white"/>
</clipPath>
</defs>
</svg>
